Coordinates
version=1
nRows=27
nColumns=12
inDegrees=yes

Units are S.I. units (second, meters, Newtons, ...)
Angles are in degrees

endheader
time	SC_y	SC_z	SC_x	AC_y	AC_z	AC_x	GH_y	GH_z	GH_yy	EL_x	PS_y
       0.0              -46.63          23.02          11.34          34.35         -7.226         0.5246          15.37          39.53         -87.91          115.4          80.27
   0.04039              -46.63          23.03          11.35          34.35         -7.226         0.5233          15.34          39.53          -87.9          115.4          80.27
   0.08079              -46.62          23.03          11.35          34.35         -7.226         0.5219          15.32          39.54         -87.88          115.4          80.28
    0.1212              -46.62          23.03          11.36          34.36         -7.225         0.5205          15.29          39.54         -87.86          115.4          80.28
    0.1616              -46.62          23.03          11.37          34.36         -7.225         0.5189          15.26          39.55         -87.84          115.3          80.28
     0.202              -46.62          23.03          11.38          34.36         -7.224         0.5172          15.22          39.56         -87.82          115.3          80.28
    0.2424              -46.62          23.04          11.39          34.37         -7.224         0.5154          15.19          39.57          -87.8          115.3          80.28
    0.2828              -46.62          23.04           11.4          34.37         -7.223         0.5135          15.15          39.58         -87.78          115.3          80.28
    0.3231              -46.61          23.04          11.41          34.38         -7.222         0.5114          15.11          39.58         -87.75          115.3          80.29
    0.3635              -46.61          23.04          11.42          34.38         -7.222         0.5092          15.07          39.59         -87.73          115.3          80.29
    0.4039              -46.61          23.05          11.44          34.39         -7.221         0.5069          15.02          39.61          -87.7          115.3          80.29
    0.4443              -46.61          23.05          11.45          34.39          -7.22         0.5043          14.97          39.62         -87.67          115.3          80.29
    0.4847               -46.6          23.05          11.47           34.4         -7.219         0.5016          14.91          39.63         -87.64          115.2           80.3
    0.5251               -46.6          23.06          11.48          34.41         -7.218         0.4986          14.86          39.64          -87.6          115.2           80.3
    0.5655               -46.6          23.06           11.5          34.41         -7.217         0.4954          14.79          39.66         -87.56          115.2           80.3
    0.6059              -46.59          23.07          11.52          34.42         -7.216         0.4919          14.72          39.67         -87.52          115.2          80.31
    0.6463              -46.59          23.07          11.54          34.43         -7.215         0.4881          14.65          39.69         -87.47          115.2          80.31
    0.6867              -46.58          23.08          11.57          34.44         -7.213          0.484          14.57          39.71         -87.42          115.1          80.31
    0.7271              -46.58          23.08          11.59          34.45         -7.212         0.4795          14.48          39.73         -87.37          115.1          80.32
    0.7675              -46.57          23.09          11.62          34.46          -7.21         0.4745          14.38          39.75         -87.31          115.1          80.32
    0.8079              -46.57           23.1          11.65          34.47         -7.209         0.4691          14.28          39.78         -87.25          115.1          80.33
    0.8483              -46.56           23.1          11.68          34.49         -7.207         0.4632          14.16           39.8         -87.17          115.0          80.34
    0.8887              -46.55          23.11          11.72           34.5         -7.205         0.4566          14.03          39.83          -87.1          115.0          80.34
    0.9291              -46.55          23.12          11.76          34.52         -7.202         0.4493          13.88          39.87         -87.01          114.9          80.35
    0.9694              -46.54          23.13          11.81          34.54           -7.2         0.4412          13.72           39.9         -86.91          114.9          80.36
      1.01              -46.53          23.14          11.86          34.56         -7.197         0.4321          13.55          39.94          -86.8          114.8          80.37
      1.05              -46.52          23.16          11.91          34.58         -7.194          0.422          13.35          39.99         -86.68          114.8          80.38
